<svg width="18" height="14" viewBox="0 0 18 14" fill="none" xmlns="http://www.w3.org/2000/svg">
<path d="M0.704296 9.51414H1.1293V6.74591C1.1293 6.42069 1.26476 6.10827 1.50383 5.8778L4.15742 3.31956C4.39648 3.08909 4.72055 2.95849 5.05789 2.95849H6.2293V1.72931C6.2293 1.05069 6.80039 0.500122 7.5043 0.500122H16.0043C16.7082 0.500122 17.2793 1.05069 17.2793 1.72931V9.92387C17.2793 10.6025 16.7082 11.1531 16.0043 11.1531H15.5793C15.5793 12.5103 14.4371 13.6114 13.0293 13.6114C11.6215 13.6114 10.4793 12.5103 10.4793 11.1531H7.0793C7.0793 12.5103 5.93711 13.6114 4.5293 13.6114C3.12148 13.6114 1.9793 12.5103 1.9793 11.1531H0.704296C0.470547 11.1531 0.279297 10.9687 0.279297 10.7433V9.92387C0.279297 9.69852 0.470547 9.51414 0.704296 9.51414ZM13.0293 12.3822C13.7332 12.3822 14.3043 11.8317 14.3043 11.1531C14.3043 10.4744 13.7332 9.92387 13.0293 9.92387C12.3254 9.92387 11.7543 10.4744 11.7543 11.1531C11.7543 11.8317 12.3254 12.3822 13.0293 12.3822ZM4.5293 12.3822C5.2332 12.3822 5.8043 11.8317 5.8043 11.1531C5.8043 10.4744 5.2332 9.92387 4.5293 9.92387C3.82539 9.92387 3.2543 10.4744 3.2543 11.1531C3.2543 11.8317 3.82539 12.3822 4.5293 12.3822ZM2.4043 7.05577H6.2293V4.18767H5.05789L2.4043 6.74591V7.05577Z" fill="#008000"/>
</svg>
