<svg width="139" height="124" viewBox="0 0 139 124" fill="none" xmlns="http://www.w3.org/2000/svg">
<circle cx="77.0017" cy="61.8455" r="61.8455" fill="#E8EFFD"/>
<rect x="33" y="35" width="89" height="52" fill="#69C7EF"/>
<path d="M33 35.2397L77.8825 6L122 35.2397L77.8825 67L33 35.2397Z" fill="#0093DD"/>
<path d="M93.5726 15H51V48.668L79.2324 68L105 48.668V25.4262L93.5726 15Z" fill="white" stroke="#C3CFE7"/>
<path d="M78.3697 56.7705L33 87L122 86.752L80.6515 56.8149C79.9748 56.3249 79.0649 56.3072 78.3697 56.7705Z" fill="#61B6DA"/>
<path d="M105 25.0222L93.5217 15L93 26L105 25.0222Z" fill="#C3CFE7"/>
<rect x="55" y="29" width="24" height="6" fill="#C3CFE7"/>
<rect x="82" y="29" width="20" height="1" fill="#C3CFE7"/>
<rect x="82" y="34" width="20" height="1" fill="#C3CFE7"/>
<rect x="82" y="31" width="20" height="1" fill="#C3CFE7"/>
<rect x="55" y="40" width="47" height="1" fill="#C3CFE7"/>
<rect x="55" y="46" width="28" height="1" fill="#C3CFE7"/>
<rect x="55" y="37" width="47" height="1" fill="#C3CFE7"/>
<rect x="55" y="42" width="47" height="1" fill="#C3CFE7"/>
<path d="M103.029 98.6963L90.8109 85.4021L85.0234 93.6479L103.029 98.6963Z" fill="#CF7D7D"/>
<path d="M86.7074 104.236L0 71L91.0268 84.966L86.7074 104.236Z" fill="#AD0000"/>
<path d="M86.0287 104.236L73.5251 90.3875L68.0234 97.0346L86.0287 104.236Z" fill="#CF7D7D"/>
<path d="M59.5358 109.775L0 71L74.0218 90.5637L59.5358 109.775Z" fill="#CC0000"/>
<rect x="70.6641" y="110.465" width="18.2979" height="2.34588" rx="1.17294" transform="rotate(21.6569 70.6641 110.465)" fill="#1A6280"/>
<rect x="92.2422" y="110.465" width="18.2979" height="2.34588" rx="1.17294" transform="rotate(21.6569 92.2422 110.465)" fill="#1A6280"/>
<rect x="95.9922" y="102.02" width="18.2979" height="2.34588" rx="1.17294" transform="rotate(21.6569 95.9922 102.02)" fill="#1A6280"/>
</svg>
