<svg width="107px" height="26px" viewBox="0 0 462 113" fill="none" xmlns="http://www.w3.org/2000/svg"><path fill-rule="evenodd" clip-rule="evenodd" d="M395.928 18h18.02v33.1c0 8.3 6.707 15 15.016 15 8.309 0 15.016-6.7 15.016-15V18H462v63.6h-.015c-.486 19.4-15.136 31.4-33.021 31.4V95c8.309 0 15.016-5.5 15.016-14.4v-.109a32.869 32.869 0 0 1-15.016 3.609c-18.052 0-32.763-14.53-33.032-32.5h-.004V18zM182.097 84V43.8c0-16.4-9.911-27.2-25.027-27.2-9.41 0-15.417 3.4-19.121 8.7-3.704-5.5-9.41-8.7-17.218-8.7-8.81 0-14.616 3.4-17.619 7.9V18H83.39v66h19.621V47.1c0-7.8 3.704-12.4 10.312-12.4 6.306 0 9.51 4.2 9.51 10.8l.1 38.5h19.721l-.1-36.9c0-7.8 3.704-12.4 10.311-12.4 6.307 0 9.511 4.2 9.511 10.8V84h19.721zm120.531 2c14.215 0 27.429-6.5 27.429-21.6 0-15.621-13.363-19.134-22.908-21.643-5.302-1.394-9.427-2.478-9.427-5.157 0-2.4 2.102-3.7 5.506-3.7 4.305 0 7.008 2.4 8.81 5.8l16.818-9.1c-5.506-9.3-15.016-14-25.628-14.1-13.715 0-25.828 7.3-25.828 21.6 0 14.597 12.914 18.197 22.791 20.95 5.359 1.493 9.544 2.66 9.544 5.25 0 2.7-2.402 4.1-7.107 4.1-5.807 0-9.511-2.8-11.213-7.8l-17.118 9.7C279.502 81 289.513 86 302.628 86zM369.9 60.6V37.3h13.515V18H369.9V0l-19.821 5.9V18h-10.511v19.4h10.511v23.3c0 18.4 7.508 26.1 33.336 23.5V66.3c-8.609.5-13.515 0-13.515-5.7zM242.763 18h20.021v66h-20.021v-4.032A32.871 32.871 0 0 1 226.946 84c-18.22 0-33.036-14.8-33.036-33s14.816-33 33.036-33a32.871 32.871 0 0 1 15.817 4.032V18zm-15.817 48.5c-8.61 0-15.517-6.9-15.517-15.5s6.907-15.5 15.517-15.5c8.609 0 15.516 6.9 15.516 15.5s-7.007 15.5-15.516 15.5zM69.075 18H49.053v4.107A33.062 33.062 0 0 0 33.036 18C14.816 18 0 32.8 0 51s14.816 33 33.036 33c5.808 0 11.27-1.504 16.017-4.143V84h20.022V18zM17.519 51c0 8.6 7.008 15.5 15.517 15.5 8.61 0 15.517-6.9 15.517-15.5s-6.908-15.5-15.517-15.5c-8.51 0-15.517 6.9-15.517 15.5z" fill="#1A1A1A"/><path d="M69 95H0v18h69V95z" fill="#FF6621"/></svg>
