<svg width="16px" height="15px" viewBox="0 0 71 66" fill="none" xmlns="http://www.w3.org/2000/svg"><path fill-rule="evenodd" clip-rule="evenodd" d="M71 0H51.017v4.104A32.966 32.966 0 0 0 35.032 0C16.848 0 2.06 14.789 2.06 32.975s14.787 32.974 32.972 32.974a32.773 32.773 0 0 0 15.986-4.14v4.14H71V0zM19.545 32.975c0 8.593 6.994 15.488 15.487 15.488a15.437 15.437 0 0 0 15.486-15.488 15.437 15.437 0 0 0-15.486-15.488c-8.493 0-15.487 6.894-15.487 15.488z" fill="#fff"/><path d="M19 47H0v19h19V47z" fill="#FF6621"/></svg>
