<svg width="20" height="15" viewBox="0 0 20 15" fill="none" xmlns="http://www.w3.org/2000/svg">
<path d="M13.3025 7.90014C12.7744 7.90014 12.2775 7.61889 12.0087 7.16889L9.99937 3.83764L7.99312 7.16889C7.72124 7.62202 7.22437 7.90327 6.69624 7.90327C6.55562 7.90327 6.41499 7.88452 6.28062 7.84389L1.99937 6.61889V12.1814C1.99937 12.6408 2.31187 13.0408 2.75562 13.1501L9.51187 14.8408C9.83062 14.9189 10.165 14.9189 10.4806 14.8408L17.2431 13.1501C17.6869 13.0376 17.9994 12.6376 17.9994 12.1814V6.61889L13.7181 7.84077C13.5837 7.88139 13.4431 7.90014 13.3025 7.90014ZM19.9462 4.39389L18.3369 1.18139C18.24 0.987642 18.0306 0.875142 17.815 0.903267L9.99937 1.90014L12.865 6.65327C12.9837 6.85014 13.2212 6.94389 13.4431 6.88139L19.6275 5.11577C19.9369 5.02514 20.0869 4.68139 19.9462 4.39389ZM1.66187 1.18139L0.0524946 4.39389C-0.0912554 4.68139 0.0618696 5.02514 0.36812 5.11264L6.55249 6.87827C6.77437 6.94077 7.01187 6.84702 7.13062 6.65014L9.99937 1.90014L2.18062 0.903267C1.96499 0.878267 1.75874 0.987642 1.66187 1.18139Z" fill="black" fill-opacity="0.87"/>
</svg>
