<svg width="21" height="21" viewBox="0 0 21 21" fill="none" xmlns="http://www.w3.org/2000/svg">
<path d="M11.8741 2.045C11.9561 2.051 12.0321 2.057 12.0961 2.066C16.5991 2.759 18.6701 4.892 19.2431 9.43C19.2531 9.507 19.2551 9.601 19.2561 9.7C19.2621 10.055 19.2741 10.793 20.0661 10.808H20.0901C20.3391 10.808 20.5361 10.733 20.6781 10.585C20.9241 10.328 20.9081 9.945 20.8931 9.637C20.8901 9.561 20.8871 9.49 20.8871 9.427C20.9451 4.787 16.9271 0.577997 12.2911 0.421997C12.2711 0.421997 12.2531 0.421997 12.2351 0.424997C12.2168 0.427298 12.1985 0.428301 12.1801 0.427997C12.1331 0.427997 12.0771 0.423997 12.0161 0.419997C11.9441 0.414997 11.8611 0.408997 11.7761 0.408997C11.0381 0.408997 10.8981 0.933997 10.8801 1.247C10.8391 1.97 11.5381 2.021 11.8741 2.045ZM19.0261 15.295C18.9295 15.2215 18.8338 15.1469 18.7391 15.071C18.2471 14.675 17.7241 14.311 17.2191 13.958L16.9041 13.738C16.2561 13.283 15.6741 13.062 15.1241 13.062C14.3821 13.062 13.7361 13.472 13.2021 14.279C12.9661 14.637 12.6791 14.811 12.3261 14.811C12.0809 14.8024 11.8403 14.7421 11.6201 14.634C9.53007 13.686 8.03607 12.232 7.18207 10.313C6.76907 9.385 6.90307 8.779 7.62907 8.285C8.04207 8.005 8.80907 7.484 8.75607 6.485C8.69407 5.352 6.19307 1.941 5.13907 1.554C4.68849 1.38964 4.19459 1.38822 3.74307 1.55C2.53207 1.957 1.66407 2.673 1.22907 3.618C0.809072 4.532 0.829072 5.605 1.28307 6.721C2.59807 9.948 4.44607 12.762 6.77707 15.084C9.05807 17.357 11.8621 19.218 15.1101 20.617C15.4031 20.743 15.7101 20.812 15.9351 20.862C16.0111 20.879 16.0771 20.894 16.1251 20.907C16.1515 20.9141 16.1787 20.9178 16.2061 20.918H16.2321C17.7601 20.918 19.5951 19.522 20.1581 17.931C20.6521 16.537 19.7501 15.848 19.0261 15.295ZM12.5501 5.732C12.2891 5.738 11.7441 5.752 11.5531 6.306C11.4631 6.566 11.4741 6.79 11.5851 6.975C11.7471 7.245 12.0581 7.329 12.3401 7.375C13.3651 7.539 13.8921 8.105 13.9971 9.158C14.0461 9.648 14.3771 9.991 14.8001 9.991C14.8322 9.99095 14.8642 9.98895 14.8961 9.985C15.4061 9.925 15.6531 9.55 15.6311 8.871C15.6391 8.163 15.2691 7.359 14.6381 6.719C14.0061 6.077 13.2441 5.715 12.5501 5.732Z" fill="black" fill-opacity="0.6"/>
</svg>
