<svg width="31" height="30" viewBox="0 0 31 30" fill="none" xmlns="http://www.w3.org/2000/svg">
<path d="M22.7285 25.3201C21.6785 25.3201 20.8385 26.1601 20.8385 27.1801C20.8385 28.2301 21.6785 29.0701 22.7285 29.0701C23.7785 29.0701 24.5885 28.2301 24.5885 27.1801C24.5885 26.1601 23.7785 25.3201 22.7285 25.3201ZM13.3385 25.3201C12.3185 25.3201 11.4785 26.1601 11.4785 27.1801C11.4785 28.2301 12.3185 29.0701 13.3385 29.0701C14.3585 29.0701 15.2285 28.2301 15.2285 27.1801C15.2285 26.1601 14.3885 25.3201 13.3385 25.3201ZM30.1985 9.51005L30.2285 9.36005C30.2285 9.24005 30.1985 9.09005 30.1385 8.97005L30.0185 8.82005C29.9285 8.67005 29.8085 8.58005 29.6585 8.52005L29.5685 8.46005C29.4785 8.43005 29.3885 8.43005 29.2985 8.43005H9.64852L7.81852 1.62005C7.69852 1.20005 7.27852 0.930054 6.82852 0.930054H1.15852C0.648516 0.930054 0.228516 1.35005 0.228516 1.86005C0.228516 2.37005 0.648516 2.82005 1.15852 2.82005H6.04852L7.75852 9.21005L7.72852 9.36005C7.72852 9.60005 7.81852 9.84005 7.96852 9.99005L11.3585 22.7701C11.5085 23.1901 11.9285 23.4301 12.3785 23.4301H25.5485L25.6985 23.4001C26.1185 23.3401 26.4785 22.9501 26.4785 22.5001L26.4485 22.3501L30.1985 9.60005V9.51005ZM24.8285 21.5701H13.1585L10.1585 10.3201H28.1585L24.8285 21.5701Z" fill="white"/>
</svg>
