<svg width="20" height="21" viewBox="0 0 20 21" fill="none" xmlns="http://www.w3.org/2000/svg">
<g clip-path="url(#clip0)">
<path d="M18.5525 9.32633L16.0547 7.10605V3.69035L13.1886 0.824219H5.42969V5.82422H2.61719C2.36864 5.82451 2.13035 5.92337 1.95459 6.09913C1.77884 6.27488 1.67998 6.51317 1.67969 6.76172V18.6367C1.67998 18.8853 1.77884 19.1236 1.95459 19.2993C2.13035 19.4751 2.36864 19.5739 2.61719 19.5742H18.8672V10.0271C18.8671 9.89468 18.8391 9.7638 18.7848 9.64303C18.7306 9.52225 18.6514 9.41432 18.5525 9.32633ZM5.42969 18.3242H2.92969V7.07422H5.42969V18.3242ZM12.3047 2.07422H12.6708L14.8047 4.20809V4.57422H12.3047V2.07422ZM6.67969 2.07422H11.0547V5.82422H14.8047V8.63672H6.67969V2.07422ZM17.6172 18.3242H6.67969V9.88672H16.0547V8.77848L17.6172 10.1674V18.3242Z" fill="black" fill-opacity="0.87"/>
<path d="M9.0625 13.9492H10.3125V15.1992H9.0625V13.9492Z" fill="black" fill-opacity="0.87"/>
<path d="M11.5625 13.9492H12.8125V15.1992H11.5625V13.9492Z" fill="black" fill-opacity="0.87"/>
<path d="M9.0625 16.4492H10.3125V17.6992H9.0625V16.4492Z" fill="black" fill-opacity="0.87"/>
<path d="M11.5625 16.4492H12.8125V17.6992H11.5625V16.4492Z" fill="black" fill-opacity="0.87"/>
<path d="M14.0625 13.9492H15.3125V15.1992H14.0625V13.9492Z" fill="black" fill-opacity="0.87"/>
<path d="M14.0625 16.4492H15.3125V17.6992H14.0625V16.4492Z" fill="black" fill-opacity="0.87"/>
<path d="M9.0625 11.4492H15.3125V12.6992H9.0625V11.4492Z" fill="black" fill-opacity="0.87"/>
</g>
<defs>
<clipPath id="clip0">
<rect width="20" height="20" fill="white" transform="translate(0 0.511719)"/>
</clipPath>
</defs>
</svg>
