<svg width="69" height="70" viewBox="0 0 69 70" fill="none" xmlns="http://www.w3.org/2000/svg">
<g clip-path="url(#clip0)">
<path d="M44.8325 12.9625C42.5318 12.9625 40.666 14.7169 40.666 16.8813C40.666 18.6285 41.3951 22.7752 48.5723 26.9671C48.7009 27.0414 48.8485 27.0807 48.999 27.0807C49.1495 27.0807 49.2971 27.0414 49.4256 26.9671C56.6028 22.7752 57.3319 18.6285 57.3319 16.8813C57.3319 14.7169 55.4662 12.9625 53.1654 12.9625C50.8647 12.9625 48.999 15.3375 48.999 15.3375C48.999 15.3375 47.1332 12.9625 44.8325 12.9625Z" stroke="black" stroke-opacity="0.6" stroke-width="2" stroke-linecap="round" stroke-linejoin="round"/>
</g>
<path d="M13.4999 10C11.57 10 10 11.57 10 13.5C10 15.08 11.06 16.403 12.4999 16.837V23.997C12.4989 24.176 12.5269 25.778 13.6739 26.928C14.3819 27.64 15.3299 28 16.4899 28V30L20.4898 27L16.4899 24V26C14.6669 26 14.5059 24.466 14.4999 24V16.837C15.9399 16.403 16.9999 15.08 16.9999 13.5C16.9999 11.57 15.4289 10 13.4999 10ZM13.4999 15C12.6729 15 12 14.327 12 13.5C12 12.673 12.6729 12 13.4999 12C14.3269 12 14.9999 12.673 14.9999 13.5C14.9999 14.327 14.3269 15 13.4999 15ZM26.4997 23.163V15.997C26.4947 14.391 25.4227 12 22.4897 12V10L18.4898 13L22.4897 16V14C24.3187 14 24.4907 15.539 24.4997 16V23.163C23.0597 23.597 21.9998 24.92 21.9998 26.5C21.9998 28.43 23.5697 30 25.4997 30C27.4296 30 28.9996 28.43 28.9996 26.5C28.9996 24.92 27.9396 23.597 26.4997 23.163ZM25.4997 28C24.6727 28 23.9997 27.327 23.9997 26.5C23.9997 25.673 24.6727 25 25.4997 25C26.3267 25 26.9997 25.673 26.9997 26.5C26.9997 27.327 26.3267 28 25.4997 28Z" fill="black" fill-opacity="0.6"/>
<g clip-path="url(#clip1)">
<path d="M44.8325 42.9625C42.5318 42.9625 40.666 44.7169 40.666 46.8813C40.666 48.6285 41.3951 52.7752 48.5723 56.9671C48.7009 57.0414 48.8485 57.0807 48.999 57.0807C49.1495 57.0807 49.2971 57.0414 49.4256 56.9671C56.6028 52.7752 57.3319 48.6285 57.3319 46.8813C57.3319 44.7169 55.4662 42.9625 53.1654 42.9625C50.8647 42.9625 48.999 45.3375 48.999 45.3375C48.999 45.3375 47.1332 42.9625 44.8325 42.9625Z" fill="#CC0000" stroke="#CC0000" stroke-width="2" stroke-linecap="round" stroke-linejoin="round"/>
</g>
<path d="M13.4999 40C11.57 40 10 41.57 10 43.5C10 45.08 11.06 46.403 12.4999 46.837V53.997C12.4989 54.176 12.5269 55.778 13.6739 56.928C14.3819 57.64 15.3299 58 16.4899 58V60L20.4898 57L16.4899 54V56C14.6669 56 14.5059 54.466 14.4999 54V46.837C15.9399 46.403 16.9999 45.08 16.9999 43.5C16.9999 41.57 15.4289 40 13.4999 40ZM13.4999 45C12.6729 45 12 44.327 12 43.5C12 42.673 12.6729 42 13.4999 42C14.3269 42 14.9999 42.673 14.9999 43.5C14.9999 44.327 14.3269 45 13.4999 45ZM26.4997 53.163V45.997C26.4947 44.391 25.4227 42 22.4897 42V40L18.4898 43L22.4897 46V44C24.3187 44 24.4907 45.539 24.4997 46V53.163C23.0597 53.597 21.9998 54.92 21.9998 56.5C21.9998 58.43 23.5697 60 25.4997 60C27.4296 60 28.9996 58.43 28.9996 56.5C28.9996 54.92 27.9396 53.597 26.4997 53.163ZM25.4997 58C24.6727 58 23.9997 57.327 23.9997 56.5C23.9997 55.673 24.6727 55 25.4997 55C26.3267 55 26.9997 55.673 26.9997 56.5C26.9997 57.327 26.3267 58 25.4997 58Z" fill="#CC0000"/>
<defs>
<clipPath id="clip0">
<rect width="19.9991" height="19" fill="white" transform="translate(39 10.5875)"/>
</clipPath>
<clipPath id="clip1">
<rect width="19.9991" height="19" fill="white" transform="translate(39 40.5875)"/>
</clipPath>
</defs>
</svg>
