<svg width="18" height="20" viewBox="0 0 18 20" fill="none" xmlns="http://www.w3.org/2000/svg">
<path d="M11.6189 2.5V3H12.1189H15.8789C16.2828 3 16.6189 3.33614 16.6189 3.74V5C16.6189 5.40386 16.2828 5.74 15.8789 5.74H15.3789V6.24V18.76C15.3789 19.1587 15.048 19.5 14.6189 19.5H3.37891C2.94983 19.5 2.61891 19.1587 2.61891 18.76V6.24V5.74H2.11891C1.71505 5.74 1.37891 5.40386 1.37891 5V3.74C1.37891 3.33614 1.71505 3 2.11891 3H5.87891H6.37891V2.5V0.62C6.37891 0.556143 6.43505 0.5 6.49891 0.5H11.4989C11.5628 0.5 11.6189 0.556143 11.6189 0.62V2.5ZM7.11891 0.74H6.61891V1.24V2.5V3H7.11891H10.8789H11.3789V2.5V1.24V0.74H10.8789H7.11891ZM3.37891 5.74H2.87891V6.24V18.12C2.87891 18.7154 3.3625 19.26 3.99891 19.26H13.9989C14.6353 19.26 15.1189 18.7154 15.1189 18.12V6.88V6.24V5.74H14.6189H3.37891ZM2.73891 5.5H15.2389C15.8646 5.5 16.3789 5.00645 16.3789 4.38C16.3789 3.74386 15.875 3.24 15.2389 3.24H2.73891C2.11246 3.24 1.61891 3.75427 1.61891 4.38C1.61891 4.99614 2.12276 5.5 2.73891 5.5Z" fill="#CC0000" stroke="#CC0000"/>
</svg>
