<svg width="18" height="23" viewBox="0 0 18 23" fill="none" xmlns="http://www.w3.org/2000/svg">
<path d="M15.8809 3.6771H12.1209V1.62858C12.1209 1.2581 11.8409 0.953003 11.5009 0.953003H6.50086C6.16086 0.953003 5.88086 1.2581 5.88086 1.62858V3.6771H2.12086C1.44086 3.6771 0.880859 4.2873 0.880859 5.02825V6.4012C0.880859 7.14215 1.44086 7.75235 2.12086 7.75235V21.3946C2.12086 22.1356 2.68086 22.7458 3.38086 22.7458H14.6209C15.3209 22.7458 15.8809 22.1356 15.8809 21.3946V7.75235C16.5609 7.75235 17.1209 7.14215 17.1209 6.4012V5.02825C17.1209 4.2873 16.5609 3.6771 15.8809 3.6771ZM7.12086 2.30416H10.8809V3.6771H7.12086V2.30416ZM14.6209 8.44972V20.6973C14.6209 21.0677 14.3409 21.3946 14.0009 21.3946H4.00086C3.66086 21.3946 3.38086 21.0677 3.38086 20.6973V7.75235H14.6209V8.44972ZM15.2409 6.4012H2.74086C2.40086 6.4012 2.12086 6.0961 2.12086 5.72562C2.12086 5.33335 2.40086 5.02825 2.74086 5.02825H15.2409C15.6009 5.02825 15.8809 5.33335 15.8809 5.72562C15.8809 6.0961 15.6009 6.4012 15.2409 6.4012Z" fill="black" fill-opacity="0.6"/>
</svg>
