<svg width="22" height="17" viewBox="0 0 22 17" fill="none" xmlns="http://www.w3.org/2000/svg">
<path d="M19.9543 0.502028C17.9564 0.611205 13.9853 1.00859 11.5338 2.45351C11.3646 2.55321 11.2687 2.73048 11.2687 2.91584V15.6894C11.2687 16.0949 11.7292 16.3512 12.1175 16.163C14.6397 14.9407 18.2874 14.6072 20.091 14.5159C20.7068 14.4846 21.1855 14.0093 21.1855 13.4396V1.57975C21.1859 0.958041 20.6259 0.465519 19.9543 0.502028ZM9.83733 2.45351C7.38619 1.00859 3.41508 0.611556 1.41713 0.502028C0.745557 0.465519 0.185547 0.958041 0.185547 1.57975V13.4399C0.185547 14.01 0.664253 14.4853 1.28005 14.5162C3.0844 14.6075 6.73394 14.9414 9.25617 16.1644C9.64337 16.3522 10.1024 16.0963 10.1024 15.6919V2.90952C10.1024 2.72381 10.0069 2.55356 9.83733 2.45351Z" fill="black"/>
</svg>
