<svg width="12" height="16" viewBox="0 0 12 16" fill="none" xmlns="http://www.w3.org/2000/svg">
<path d="M6.06271 0C2.94553 0 0.415649 2.52988 0.415649 5.64706C0.415649 8.76424 6.06271 15.0588 6.06271 15.0588C6.06271 15.0588 11.7098 8.76424 11.7098 5.64706C11.7098 2.52988 9.17988 0 6.06271 0ZM1.3493 5.64706C1.3493 3.04188 3.45753 0.933647 6.06271 0.933647C8.65283 0.933647 10.7611 3.04188 10.7611 5.64706C10.7611 8.25224 6.06271 13.6433 6.06271 13.6433C6.06271 13.6433 1.3493 8.25224 1.3493 5.64706ZM6.06271 2.816C4.49659 2.816 3.23165 4.08094 3.23165 5.64706C3.23165 7.19812 4.49659 8.46306 6.06271 8.46306C7.61377 8.46306 8.87871 7.19812 8.87871 5.64706C8.87871 4.08094 7.61377 2.816 6.06271 2.816ZM6.06271 7.52941C5.02365 7.52941 4.18035 6.68612 4.18035 5.64706C4.18035 4.608 5.02365 3.76471 6.06271 3.76471C7.10177 3.76471 7.94506 4.608 7.94506 5.64706C7.94506 6.68612 7.10177 7.52941 6.06271 7.52941Z" fill="#CC0000"/>
</svg>
