<svg width="12" height="14" viewBox="0 0 12 14" fill="none" xmlns="http://www.w3.org/2000/svg">
<path d="M5.50002 10H4.00002V0.5C4.00002 0.367392 3.94735 0.240215 3.85358 0.146447C3.75981 0.0526784 3.63263 0 3.50002 0H2.50002C2.36742 0 2.24024 0.0526784 2.14647 0.146447C2.0527 0.240215 2.00002 0.367392 2.00002 0.5V10H0.500024C0.0565866 10 -0.167788 10.5387 0.147212 10.8534L2.64721 13.8534C2.74097 13.9471 2.8681 13.9998 3.00065 13.9998C3.1332 13.9998 3.26033 13.9471 3.35409 13.8534L5.85409 10.8534C6.16721 10.5394 5.9444 10 5.50002 10Z" fill="black" fill-opacity="0.6"/>
<path d="M11.2549 3.99975H9.75491V13.4998C9.75491 13.6324 9.70223 13.7595 9.60846 13.8533C9.51469 13.9471 9.38752 13.9998 9.25491 13.9998H8.25491C8.1223 13.9998 7.99512 13.9471 7.90135 13.8533C7.80759 13.7595 7.75491 13.6324 7.75491 13.4998V3.99975H6.25491C5.81147 3.99975 5.58709 3.46101 5.90209 3.14632L8.40209 0.146317C8.49585 0.0526199 8.62298 -1.33514e-05 8.75553 -1.33514e-05C8.88808 -1.33514e-05 9.01521 0.0526199 9.10897 0.146317L11.609 3.14632C11.9221 3.46038 11.6993 3.99975 11.2549 3.99975Z" fill="black" fill-opacity="0.6"/>
</svg>
