<svg width="21" height="22" viewBox="0 0 21 22" fill="none" xmlns="http://www.w3.org/2000/svg">
<path d="M3.39974 0.908997C3.07348 0.90875 2.75038 0.972782 2.44887 1.09743C2.14737 1.22209 1.87338 1.40492 1.64255 1.63549C1.41172 1.86605 1.22858 2.13984 1.10358 2.4412C0.978585 2.74256 0.914186 3.0656 0.914062 3.39185C0.914062 4.76495 2.02665 5.90293 3.39692 5.90293C4.76907 5.90293 5.8826 4.76495 5.8826 3.39374C5.88285 3.06752 5.81881 2.74446 5.69414 2.44301C5.56948 2.14156 5.38663 1.86763 5.15605 1.63687C4.92547 1.40612 4.65168 1.22307 4.35032 1.09817C4.04897 0.97328 3.72595 0.908997 3.39974 0.908997ZM15.5244 7.49233C13.4374 7.49233 12.244 8.58328 11.6703 9.66859H11.6101V7.78482H7.4974V21.5995H11.7831V14.7613C11.7831 12.9593 11.9186 11.2176 14.1484 11.2176C16.3463 11.2176 16.3783 13.2725 16.3783 14.8751V21.5995H20.6641V14.0117C20.6641 10.2987 19.8656 7.49233 15.5244 7.49233ZM1.25546 7.78388V21.5995H5.54403V7.78388H1.25546Z" fill="black" fill-opacity="0.6"/>
</svg>
