<svg width="19" height="15" viewBox="0 0 19 15" fill="none" xmlns="http://www.w3.org/2000/svg">
<mask id="path-1-inside-1_4202_15392" fill="white">
<path d="M18.541 1.06C18.301 0.820005 17.921 0.820005 17.681 1.06L5.60101 13.12L-0.158988 7.34001C-0.398988 7.10001 -0.798988 7.10001 -1.03899 7.34001C-1.27899 7.58001 -1.29899 7.98001 -1.03899 8.24001L5.16101 14.44C5.40101 14.68 5.80101 14.68 6.04101 14.44L18.541 1.94C18.781 1.7 18.781 1.3 18.541 1.06V1.06Z"/>
</mask>
<path d="M18.541 1.06C18.301 0.820005 17.921 0.820005 17.681 1.06L5.60101 13.12L-0.158988 7.34001C-0.398988 7.10001 -0.798988 7.10001 -1.03899 7.34001C-1.27899 7.58001 -1.29899 7.98001 -1.03899 8.24001L5.16101 14.44C5.40101 14.68 5.80101 14.68 6.04101 14.44L18.541 1.94C18.781 1.7 18.781 1.3 18.541 1.06V1.06Z" fill="#CC0000"/>
<path d="M17.681 1.06L19.0941 2.47539L19.0952 2.47422L17.681 1.06ZM5.60101 13.12L4.18435 14.5318L5.59739 15.9497L7.01405 14.5354L5.60101 13.12ZM-0.158988 7.34001L1.25768 5.92824L1.25523 5.92579L-0.158988 7.34001ZM-1.03899 8.24001L0.375226 6.82579H0.375226L-1.03899 8.24001ZM5.16101 14.44L3.7468 15.8542L5.16101 14.44ZM6.04101 14.44L7.45523 15.8542L6.04101 14.44ZM18.541 1.94L17.1268 0.525791L18.541 1.94ZM19.9552 -0.354209C18.9342 -1.37526 17.2878 -1.37526 16.2668 -0.354209L19.0952 2.47422C18.5542 3.01527 17.6678 3.01527 17.1268 2.47422L19.9552 -0.354209ZM16.268 -0.35538L4.18797 11.7046L7.01405 14.5354L19.0941 2.47539L16.268 -0.35538ZM7.01768 11.7082L1.25767 5.92824L-1.57565 8.75177L4.18435 14.5318L7.01768 11.7082ZM1.25523 5.92579C0.234177 4.90474 -1.43215 4.90474 -2.4532 5.92579L0.375226 8.75422C-0.165823 9.29527 -1.03215 9.29527 -1.5732 8.75422L1.25523 5.92579ZM-2.4532 5.92579C-3.43291 6.9055 -3.53496 8.57247 -2.4532 9.65422L0.375226 6.82579C0.93698 7.38755 0.874938 8.25451 0.375226 8.75422L-2.4532 5.92579ZM-2.4532 9.65422L3.7468 15.8542L6.57523 13.0258L0.375226 6.82579L-2.4532 9.65422ZM3.7468 15.8542C4.76785 16.8753 6.43418 16.8753 7.45523 15.8542L4.6268 13.0258C5.16785 12.4847 6.03418 12.4847 6.57523 13.0258L3.7468 15.8542ZM7.45523 15.8542L19.9552 3.35422L17.1268 0.525791L4.6268 13.0258L7.45523 15.8542ZM19.9552 3.35422C20.9763 2.33317 20.9763 0.66684 19.9552 -0.354209L17.1268 2.47422C16.5858 1.93317 16.5858 1.06684 17.1268 0.525791L19.9552 3.35422Z" fill="#CC0000" mask="url(#path-1-inside-1_4202_15392)"/>
</svg>
