<svg width="19" height="25" viewBox="0 0 19 25" fill="none" xmlns="http://www.w3.org/2000/svg">
<path d="M9.08691 12.5049C8.84277 11.7236 8.84766 10.2148 8.98926 10.2148C9.39941 10.2148 9.36035 12.0166 9.08691 12.5049ZM9.00391 14.8096C8.62793 15.7959 8.15918 16.9238 7.61719 17.8711C8.51074 17.5293 9.52148 17.0312 10.6885 16.8018C10.0684 16.333 9.47266 15.6592 9.00391 14.8096ZM4.40918 20.9033C4.40918 20.9424 5.05371 20.6396 6.11328 18.9404C5.78613 19.248 4.69238 20.1367 4.40918 20.9033ZM12.3145 7.8125H18.9551V23.8281C18.9551 24.4775 18.4326 25 17.7832 25H1.37695C0.727539 25 0.205078 24.4775 0.205078 23.8281V1.17188C0.205078 0.522461 0.727539 0 1.37695 0H11.1426V6.64062C11.1426 7.28516 11.6699 7.8125 12.3145 7.8125ZM11.9238 16.2012C10.9473 15.6055 10.2979 14.7852 9.83887 13.5742C10.0586 12.6709 10.4053 11.2988 10.1416 10.4395C9.91211 9.00391 8.07129 9.14551 7.80762 10.1074C7.56348 11.001 7.78809 12.2607 8.20312 13.8672C7.63672 15.2148 6.80176 17.0215 6.21094 18.0566C6.20605 18.0566 6.20605 18.0615 6.20117 18.0615C4.87793 18.7402 2.60742 20.2344 3.54004 21.3818C3.81348 21.7188 4.32129 21.8701 4.58984 21.8701C5.46387 21.8701 6.33301 20.9912 7.57324 18.8525C8.83301 18.4375 10.2148 17.9199 11.4307 17.7197C12.4902 18.2959 13.7305 18.6719 14.5557 18.6719C15.9814 18.6719 16.0791 17.1094 15.5176 16.5527C14.8389 15.8887 12.8662 16.0791 11.9238 16.2012ZM18.6133 5.12695L13.8281 0.341797C13.6084 0.12207 13.3105 0 12.998 0H12.7051V6.25H18.9551V5.95215C18.9551 5.64453 18.833 5.34668 18.6133 5.12695ZM14.9951 17.5928C15.1953 17.4609 14.873 17.0117 12.9053 17.1533C14.7168 17.9248 14.9951 17.5928 14.9951 17.5928Z" fill="#0093DD"/>
</svg>
