<svg width="17" height="23" viewBox="0 0 17 23" fill="none" xmlns="http://www.w3.org/2000/svg">
<path d="M8.11999 11.2571C7.90189 10.585 7.90625 9.28713 8.03275 9.28713C8.39915 9.28713 8.36426 10.837 8.11999 11.2571ZM8.04583 13.2396C7.70996 14.0881 7.29121 15.0583 6.80703 15.8732C7.60527 15.5792 8.5082 15.1507 9.55072 14.9533C8.99675 14.5501 8.46458 13.9705 8.04583 13.2396ZM3.94121 18.4816C3.94121 18.5152 4.51699 18.2548 5.46354 16.7931C5.17129 17.0577 4.19421 17.8221 3.94121 18.4816ZM11.0033 7.22059H16.9355V20.9975C16.9355 21.5562 16.4688 22.0056 15.8887 22.0056H1.23242C0.652279 22.0056 0.185547 21.5562 0.185547 20.9975V1.50819C0.185547 0.949553 0.652279 0.500122 1.23242 0.500122H9.95638V6.21252C9.95638 6.76696 10.4275 7.22059 11.0033 7.22059ZM10.6543 14.4367C9.7819 13.9243 9.20176 13.2186 8.79173 12.1769C8.98802 11.3999 9.29772 10.2196 9.06217 9.48035C8.85716 8.24546 7.2127 8.36727 6.97715 9.19473C6.75905 9.96338 6.9597 11.0471 7.33047 12.429C6.82448 13.5882 6.07858 15.1423 5.55078 16.0328C5.54642 16.0328 5.54642 16.037 5.54206 16.037C4.35996 16.6208 2.33164 17.9061 3.16478 18.8932C3.40905 19.183 3.8627 19.3132 4.1026 19.3132C4.8834 19.3132 5.65983 18.5572 6.76777 16.7174C7.89316 16.3604 9.1276 15.9152 10.2137 15.743C11.1603 16.2386 12.2682 16.562 13.0054 16.562C14.2791 16.562 14.3663 15.2179 13.8647 14.7391C13.2584 14.1679 11.4962 14.3317 10.6543 14.4367ZM16.6302 4.91043L12.3555 0.794142C12.1592 0.605129 11.8931 0.500122 11.6139 0.500122H11.3522V5.8765H16.9355V5.62028C16.9355 5.35566 16.8265 5.09944 16.6302 4.91043ZM13.398 15.6338C13.5768 15.5204 13.2889 15.1339 11.5311 15.2557C13.1493 15.9194 13.398 15.6338 13.398 15.6338Z" fill="black"/>
</svg>
