<svg width="21" height="20" viewBox="0 0 21 20" fill="none" xmlns="http://www.w3.org/2000/svg">
<path d="M20.4058 17.6425L16.6293 14.0967C17.8477 12.635 18.5089 10.8299 18.5064 8.97156C18.5064 7.3166 17.9853 5.69881 17.0089 4.32276C16.0325 2.94672 14.6446 1.87422 13.0209 1.24089C11.3972 0.607568 9.61055 0.441862 7.88683 0.764728C6.16311 1.08759 4.57977 1.88453 3.33704 3.05476C2.0943 4.22499 1.24799 5.71596 0.905121 7.33912C0.562252 8.96228 0.738225 10.6447 1.41079 12.1737C2.08335 13.7027 3.22229 15.0095 4.68359 15.929C6.14489 16.8484 7.86291 17.3392 9.6204 17.3392C11.5938 17.3415 13.5108 16.7189 15.0631 15.5715L18.8285 19.1277C18.9318 19.2258 19.0547 19.3036 19.19 19.3567C19.3254 19.4098 19.4705 19.4371 19.6172 19.4371C19.7638 19.4371 19.909 19.4098 20.0444 19.3567C20.1797 19.3036 20.3026 19.2258 20.4058 19.1277C20.5099 19.0305 20.5926 18.9148 20.649 18.7874C20.7053 18.6599 20.7344 18.5232 20.7344 18.3851C20.7344 18.247 20.7053 18.1103 20.649 17.9829C20.5926 17.8554 20.5099 17.7397 20.4058 17.6425ZM2.95589 8.97156C2.95589 7.73034 3.34675 6.517 4.07906 5.48496C4.81137 4.45293 5.85222 3.64855 7.07 3.17356C8.28778 2.69857 9.6278 2.57429 10.9206 2.81644C12.2134 3.05858 13.4009 3.65629 14.3329 4.53396C15.265 5.41164 15.8997 6.52986 16.1569 7.74723C16.414 8.9646 16.282 10.2264 15.7776 11.3732C15.2732 12.5199 14.419 13.5 13.323 14.1896C12.227 14.8792 10.9385 15.2473 9.6204 15.2473C7.85286 15.2473 6.15772 14.5861 4.90788 13.4092C3.65804 12.2322 2.95589 10.636 2.95589 8.97156Z" fill="white"/>
</svg>
