<svg width="20" height="20" viewBox="0 0 20 20" fill="none" xmlns="http://www.w3.org/2000/svg">
<path d="M18.0748 4.749C15.1948 0.308996 9.31477 -1.011 4.75477 1.749C0.314774 4.509 -1.12523 10.509 1.75477 14.949L1.99477 15.309L1.03477 18.909L4.63477 17.949L4.99477 18.189C6.55477 19.029 8.23477 19.509 9.91477 19.509C11.7148 19.509 13.5148 19.029 15.0748 18.069C19.5148 15.189 20.8348 9.309 18.0748 4.749ZM15.5548 13.989C15.0748 14.709 14.4748 15.189 13.6348 15.309C13.1548 15.309 12.5548 15.549 10.1548 14.589C8.11477 13.629 6.43477 12.069 5.23477 10.269C4.51477 9.429 4.15477 8.349 4.03477 7.269C4.03477 6.309 4.39477 5.469 4.99477 4.869C5.23477 4.629 5.47477 4.509 5.71477 4.509H6.31477C6.55477 4.509 6.79477 4.509 6.91477 4.989C7.15477 5.589 7.75477 7.029 7.75477 7.149C7.87477 7.269 7.87477 7.509 7.75477 7.629C7.87477 7.869 7.75477 8.109 7.63477 8.229C7.51477 8.349 7.39477 8.589 7.27477 8.709C7.03477 8.829 6.91477 9.069 7.03477 9.309C7.51477 10.029 8.11477 10.749 8.71477 11.349C9.43477 11.949 10.1548 12.429 10.9948 12.789C11.2348 12.909 11.4748 12.909 11.5948 12.669C11.7148 12.429 12.3148 11.829 12.5548 11.589C12.7948 11.349 12.9148 11.349 13.1548 11.469L15.0748 12.429C15.3148 12.549 15.5548 12.669 15.6748 12.789C15.7948 13.149 15.7948 13.629 15.5548 13.989Z" fill="black"/>
</svg>
