<svg width="23" height="18" viewBox="0 0 23 18" fill="none" xmlns="http://www.w3.org/2000/svg">
<path d="M22.3172 2.97167C22.0555 1.91344 21.2844 1.08002 20.3054 0.79718C18.5308 0.283234 11.4149 0.283234 11.4149 0.283234C11.4149 0.283234 4.29907 0.283234 2.52444 0.79718C1.5454 1.08006 0.774318 1.91344 0.512609 2.97167C0.0371094 4.88978 0.0371094 8.89172 0.0371094 8.89172C0.0371094 8.89172 0.0371094 12.8937 0.512609 14.8118C0.774318 15.87 1.5454 16.6687 2.52444 16.9515C4.29907 17.4655 11.4149 17.4655 11.4149 17.4655C11.4149 17.4655 18.5307 17.4655 20.3054 16.9515C21.2844 16.6687 22.0555 15.87 22.3172 14.8118C22.7927 12.8937 22.7927 8.89172 22.7927 8.89172C22.7927 8.89172 22.7927 4.88978 22.3172 2.97167ZM9.08761 12.5252V5.25825L15.0351 8.89181L9.08761 12.5252Z" fill="black" fill-opacity="0.6"/>
</svg>
